<?xml version="1.0" encoding="UTF-8" standalone="no"?>
<svg
   xmlns:dc="http://purl.org/dc/elements/1.1/"
   xmlns:cc="http://creativecommons.org/ns#"
   xmlns:rdf="http://www.w3.org/1999/02/22-rdf-syntax-ns#"
   xmlns:svg="http://www.w3.org/2000/svg"
   xmlns="http://www.w3.org/2000/svg"
   xmlns:sodipodi="http://sodipodi.sourceforge.net/DTD/sodipodi-0.dtd"
   xmlns:inkscape="http://www.inkscape.org/namespaces/inkscape"
   xml:space="preserve"
   viewBox="0 0 106.9672 88.32637"
   y="0"
   x="0"
   id="圖層_1"
   version="1.1"
   width="136.91801"
   height="113.05775"
   ne="0.08790270831336988"
   sodipodi:docname="logo.svg"
   inkscape:version="1.0 (6e3e5246a0, 2020-05-07)"><metadata
     id="metadata905"><rdf:RDF><cc:Work
         rdf:about=""><dc:format>image/svg+xml</dc:format><dc:type
           rdf:resource="http://purl.org/dc/dcmitype/StillImage" /><dc:title></dc:title></cc:Work></rdf:RDF></metadata><defs
     id="defs903"><inkscape:path-effect
   effect="powerclip"
   id="path-effect1457"
   is_visible="true"
   lpeversion="1"
   inverse="true"
   flatten="false"
   hide_clip="false"
   message="Use fill-rule evenodd on &lt;b&gt;fill and stroke&lt;/b&gt; dialog if no flatten result after convert clip to paths." />



<clipPath
   clipPathUnits="userSpaceOnUse"
   id="clipPath936"><rect
     style="fill:#0c5012;fill-opacity:1;stroke:none;stroke-width:0.814961;stroke-miterlimit:4;stroke-dasharray:none;stroke-opacity:1"
     id="rect938"
     width="118.5761"
     height="75.255241"
     x="-9.2076941"
     y="157.47229" /></clipPath><clipPath
   clipPathUnits="userSpaceOnUse"
   id="clipPath1453"><rect
     y="130.27235"
     x="-2.2226627"
     height="79.894676"
     width="41.420101"
     id="rect1455"
     style="display:none;fill:none;fill-opacity:0.480879;stroke:#c33737;stroke-width:3.83828;stroke-linecap:round;stroke-linejoin:round;stroke-miterlimit:4;stroke-dasharray:none;stroke-opacity:1"
     d="M -2.2226627,130.27235 H 39.197438 v 79.89468 H -2.2226627 Z" /><path
     id="lpe_path-effect1457"
     style="fill:none;fill-opacity:0.480879;stroke:#c33737;stroke-width:3.83828;stroke-linecap:round;stroke-linejoin:round;stroke-miterlimit:4;stroke-dasharray:none;stroke-opacity:1"
     class="powerclip"
     d="m -27.447709,128.00871 h 91.870246 v 84.42185 h -91.870246 z m 25.2250463,2.26364 v 79.89468 H 39.197438 v -79.89468 z" /></clipPath><clipPath
   clipPathUnits="userSpaceOnUse"
   id="clipPath1483"><rect
     y="129.34219"
     x="77.838455"
     height="79.894676"
     width="41.420101"
     id="rect1485"
     style="fill:none;fill-opacity:0.480879;stroke:#c33737;stroke-width:3.83828;stroke-linecap:round;stroke-linejoin:round;stroke-miterlimit:4;stroke-dasharray:none;stroke-opacity:1" /></clipPath><clipPath
   id="clipPath878"
   clipPathUnits="userSpaceOnUse"><rect
     y="189.87228"
     x="-80.064339"
     height="59.613182"
     width="193.30663"
     id="rect880"
     style="opacity:0.456116;fill:#759a32;fill-opacity:1;stroke:none;stroke-width:3.83828;stroke-linecap:round;stroke-linejoin:round;stroke-opacity:0.707104" /></clipPath><clipPath
   id="clipPath899"
   clipPathUnits="userSpaceOnUse"><rect
     y="185.96828"
     x="-28.520548"
     height="53.606998"
     width="131.44084"
     id="rect901"
     style="opacity:0.456116;fill:#c33737;fill-opacity:0.421313;stroke:none;stroke-width:7.03125;stroke-linecap:round;stroke-linejoin:round;stroke-miterlimit:4;stroke-dasharray:none;stroke-opacity:0.707104" /></clipPath></defs><sodipodi:namedview
     fit-margin-bottom="0"
     fit-margin-right="0"
     fit-margin-left="0"
     fit-margin-top="0"
     inkscape:document-rotation="0"
     pagecolor="#ffffff"
     bordercolor="#666666"
     borderopacity="1"
     objecttolerance="10"
     gridtolerance="10"
     guidetolerance="10"
     inkscape:pageopacity="0"
     inkscape:pageshadow="2"
     inkscape:window-width="1920"
     inkscape:window-height="2132"
     id="namedview901"
     showgrid="false"
     inkscape:zoom="1.8078179"
     inkscape:cx="28.58317"
     inkscape:cy="231.2514"
     inkscape:window-x="1920"
     inkscape:window-y="0"
     inkscape:window-maximized="0"
     inkscape:current-layer="圖層_1" /><path
     fill="hsla(0,0%,20%,1)"
     d="m 105.78007,69.673715 c -0.33504,-1.082085 -2.08606,-1.823953 -3.97802,-1.824553 l -4.899256,-0.0015 a 3.1594454,1.8363634 0 0 1 -3.15772,-1.837381 l 0.003,-3.425109 a 3.1594454,1.8363634 0 0 1 3.16117,-1.835362 l 5.088446,0.0016 a 3.8566932,2.2416245 0 0 0 3.8588,-2.240401 l 0.0264,-28.146033 c 9e-5,-0.09689 -0.0289,-0.189182 -0.0487,-0.282239 a 3.8434627,2.2339346 0 0 0 -3.80586,-1.960633 l -5.088446,-0.0016 a 3.1594454,1.8363634 0 0 1 -3.15767,-1.83735 l 0.003,-3.425109 a 3.1594454,1.8363634 0 0 1 3.16116,-1.835362 l 4.899256,0.0015 c 1.89195,6e-4 3.64439,-0.740157 3.98146,-1.822028 a 3.8593394,2.2431625 0 0 0 -3.78916,-2.661136 L 4.0951378,16.509959 c -1.891962,-6e-4 -3.64437703,0.740157 -3.98144803,1.822028 a 3.8606624,2.2439315 0 0 0 3.78936703,2.66116 l 5.088447,0.0016 a 3.1594454,1.8363634 0 0 1 3.1577302,1.837365 l -0.003,3.42511 a 3.1594454,1.8363634 0 0 1 -3.1611802,1.835362 l -5.088448,-0.0016 a 3.8434627,2.2339346 0 0 0 -3.80955603,1.958157 c -0.01994,0.09381 -0.04913,0.186081 -0.04922,0.282206 l -0.02642,28.145265 A 3.8566932,2.2416245 0 0 0 3.8659998,60.71946 l 5.088454,0.0016 a 3.1594454,1.8363634 0 0 1 3.1577202,1.837365 l -0.003,3.42511 a 3.1594454,1.8363634 0 0 1 -3.1611702,1.835362 l -4.899256,-0.0015 c -1.891939,-5.78e-4 -3.64435403,0.740179 -3.98142403,1.82205 a 3.8606624,2.2439315 0 0 0 3.78936603,2.661161 l 98.1306602,0.03111 a 3.8593394,2.2431625 0 0 0 3.79303,-2.657986 z M 23.017274,28.09705 a 3.1594454,1.8363634 0 0 1 -3.15772,-1.837367 l 0.003,-3.425109 a 3.1594454,1.8363634 0 0 1 3.16117,-1.835361 l 4.4481,0.0014 a 3.1594454,1.8363634 0 0 1 3.15772,1.837365 l -0.003,3.425111 a 3.1594454,1.8363634 0 0 1 -3.16117,1.835361 z m 18.4817,0.0058 a 3.1594454,1.8363634 0 0 1 -3.15772,-1.837325 l 0.003,-3.425108 a 3.1594454,1.8363634 0 0 1 3.16116,-1.835362 l 4.44678,0.0014 a 3.1594454,1.8363634 0 0 1 3.15772,1.837365 l -0.003,3.425109 a 3.1594454,1.8363634 0 0 1 -3.16117,1.835362 z m 18.47905,0.0058 a 3.1594454,1.8363634 0 0 1 -3.15773,-1.837403 l 0.003,-3.425109 a 3.1594454,1.8363634 0 0 1 3.16121,-1.83533 l 4.44678,0.0014 a 3.1594454,1.8363634 0 0 1 3.15772,1.837365 l -0.003,3.42511 a 3.1594454,1.8363634 0 0 1 -3.16117,1.83536 z m 18.48037,0.0058 a 3.1594454,1.8363634 0 0 1 -3.15772,-1.837366 l 0.003,-3.42511 a 3.1594454,1.8363634 0 0 1 3.16116,-1.83536 l 4.4481,0.0014 a 3.1594454,1.8363634 0 0 1 3.15772,1.837364 l -0.003,3.425111 a 3.1594454,1.8363634 0 0 1 -3.16119,1.83536 z m -70.7315702,28.122845 0.0222,-23.662018 24.9963902,0.0079 -0.0222,23.661247 -24.9963902,-0.0079 z m 32.7097802,0.01037 0.0222,-23.662017 24.99772,0.0079 -0.0222,23.661248 -24.99772,-0.0079 z m 32.7111,0.01037 0.0222,-23.662016 24.9964,0.0079 -0.0222,23.661248 -24.99639,-0.0079 z m -50.16772,11.565223 a 3.1594454,1.8363634 0 0 1 -3.15772,-1.837364 l 0.003,-3.425111 a 3.1594454,1.8363634 0 0 1 3.16117,-1.835361 l 4.4481,0.0014 a 3.1594454,1.8363634 0 0 1 3.15772,1.837365 l -0.003,3.425109 a 3.1594454,1.8363634 0 0 1 -3.16117,1.835362 z m 18.4817,0.0058 a 3.1594454,1.8363634 0 0 1 -3.15772,-1.837365 l 0.003,-3.42511 a 3.1594454,1.8363634 0 0 1 3.16116,-1.835362 l 4.44678,0.0014 a 3.1594454,1.8363634 0 0 1 3.15772,1.837365 l -0.003,3.425109 a 3.1594454,1.8363634 0 0 1 -3.16117,1.835362 z m 18.47905,0.0058 a 3.1594454,1.8363634 0 0 1 -3.15772,-1.837365 l 0.003,-3.42511 a 3.1594454,1.8363634 0 0 1 3.16116,-1.835361 l 4.44678,0.0014 a 3.1594454,1.8363634 0 0 1 3.15772,1.837365 l -0.003,3.42511 a 3.1594454,1.8363634 0 0 1 -3.16117,1.835574 z m 18.48037,0.0058 a 3.1594454,1.8363634 0 0 1 -3.15772,-1.837365 l 0.003,-3.425109 a 3.1594454,1.8363634 0 0 1 3.16116,-1.835362 l 4.4481,0.0014 a 3.1594454,1.8363634 0 0 1 3.15772,1.837365 l -0.003,3.42511 a 3.1594454,1.8363634 0 0 1 -3.16118,1.83536 z"
     style="mix-blend-mode:normal;fill:#1e1e1e;fill-opacity:0.805913;stroke-width:1.00867"
     id="path894-7" /><!-- generated by https://loading.io/ --><path
     id="path894"
     style="mix-blend-mode:normal;fill:#666666;fill-opacity:1;stroke-width:1.00867"
     d="m 106.85238,68.715839 c -0.33503,-1.082085 -2.08606,-1.823952 -3.97802,-1.824552 l -4.899256,-0.0015 a 3.1594454,1.8363634 0 0 1 -3.15772,-1.837381 l 0.003,-3.425109 a 3.1594454,1.8363634 0 0 1 3.16117,-1.835362 l 5.088446,0.0016 a 3.8566932,2.2416245 0 0 0 3.8588,-2.240401 l 0.0264,-28.146033 c 9e-5,-0.09689 -0.0289,-0.189182 -0.0487,-0.282238 a 3.8434627,2.2339346 0 0 0 -3.80586,-1.960634 l -5.088456,-0.0016 a 3.1594454,1.8363634 0 0 1 -3.15772,-1.837365 l 0.003,-3.425109 a 3.1594454,1.8363634 0 0 1 3.16117,-1.835362 l 4.899256,0.0015 c 1.89196,6e-4 3.64438,-0.740157 3.98145,-1.822028 a 3.8593394,2.2431625 0 0 0 -3.78933,-2.66112 L 5.1672188,15.552085 c -1.891962,-6e-4 -3.644377,0.740157 -3.981447,1.822028 a 3.8606624,2.2439315 0 0 0 3.789366,2.66116 l 5.0884562,0.0016 a 3.1594454,1.8363634 0 0 1 3.15772,1.837365 l -0.003,3.425109 a 3.1594454,1.8363634 0 0 1 -3.16117,1.835361 l -5.0884532,-0.0016 a 3.8434627,2.2339346 0 0 0 -3.809579,1.958195 c -0.01994,0.09381 -0.04913,0.186082 -0.04922,0.282207 l -0.02642,28.145264 a 3.8566932,2.2416245 0 0 0 3.854589,2.242848 l 5.0884532,0.0016 a 3.1594454,1.8363634 0 0 1 3.15772,1.837365 l -0.003,3.42511 a 3.1594454,1.8363634 0 0 1 -3.16117,1.835362 l -4.8992542,-0.0015 c -1.891962,-6e-4 -3.644377,0.740157 -3.981447,1.822028 a 3.8606624,2.2439315 0 0 0 3.789366,2.661161 l 98.1306612,0.03111 a 3.8593394,2.2431625 0 0 0 3.79304,-2.657987 z M 24.089584,27.139175 a 3.1594454,1.8363634 0 0 1 -3.15772,-1.837366 l 0.003,-3.425109 a 3.1594454,1.8363634 0 0 1 3.16117,-1.835361 l 4.4481,0.0014 a 3.1594454,1.8363634 0 0 1 3.15772,1.837365 l -0.003,3.42511 a 3.1594454,1.8363634 0 0 1 -3.16117,1.835361 z m 18.4817,0.0058 a 3.1594454,1.8363634 0 0 1 -3.15772,-1.837305 l 0.003,-3.425109 a 3.1594454,1.8363634 0 0 1 3.16117,-1.835362 l 4.44677,0.0014 a 3.1594454,1.8363634 0 0 1 3.15772,1.837365 l -0.003,3.42511 a 3.1594454,1.8363634 0 0 1 -3.16117,1.835361 z m 18.47905,0.0058 a 3.1594454,1.8363634 0 0 1 -3.15772,-1.837365 l 0.003,-3.425109 a 3.1594454,1.8363634 0 0 1 3.1612,-1.83533 l 4.44678,0.0014 a 3.1594454,1.8363634 0 0 1 3.15772,1.837365 l -0.003,3.42511 a 3.1594454,1.8363634 0 0 1 -3.16117,1.83536 z m 18.48037,0.0058 a 3.1594454,1.8363634 0 0 1 -3.15772,-1.837365 l 0.003,-3.42511 a 3.1594454,1.8363634 0 0 1 3.16117,-1.83536 l 4.44809,0.0014 a 3.1594454,1.8363634 0 0 1 3.15772,1.837364 l -0.003,3.42511 a 3.1594454,1.8363634 0 0 1 -3.16117,1.835362 z m -70.7315702,28.122844 0.0222,-23.662017 24.9964002,0.0079 -0.0222,23.661246 -24.9964002,-0.0079 z m 32.7097802,0.01037 0.0222,-23.662016 24.99772,0.0079 -0.0222,23.661247 -24.99772,-0.0079 z m 32.7111,0.01037 0.0222,-23.662016 24.9964,0.0079 -0.0222,23.661247 -24.99639,-0.0079 z m -50.16772,11.565224 a 3.1594454,1.8363634 0 0 1 -3.15772,-1.837365 l 0.003,-3.42511 a 3.1594454,1.8363634 0 0 1 3.16117,-1.835361 l 4.4481,0.0014 a 3.1594454,1.8363634 0 0 1 3.15772,1.837365 l -0.003,3.425109 a 3.1594454,1.8363634 0 0 1 -3.16117,1.835362 z m 18.4817,0.0058 a 3.1594454,1.8363634 0 0 1 -3.15772,-1.837365 l 0.003,-3.42511 a 3.1594454,1.8363634 0 0 1 3.16117,-1.835362 l 4.44677,0.0014 a 3.1594454,1.8363634 0 0 1 3.15772,1.837365 l -0.003,3.425109 a 3.1594454,1.8363634 0 0 1 -3.16117,1.835362 z m 18.47905,0.0058 a 3.1594454,1.8363634 0 0 1 -3.15772,-1.837365 l 0.003,-3.42511 a 3.1594454,1.8363634 0 0 1 3.16116,-1.835361 l 4.44678,0.0014 a 3.1594454,1.8363634 0 0 1 3.15772,1.837365 l -0.003,3.42511 a 3.1594454,1.8363634 0 0 1 -3.16117,1.835574 z m 18.48037,0.0058 a 3.1594454,1.8363634 0 0 1 -3.15772,-1.837365 l 0.003,-3.425109 a 3.1594454,1.8363634 0 0 1 3.16117,-1.835362 l 4.44809,0.0014 a 3.1594454,1.8363634 0 0 1 3.15772,1.837366 l -0.003,3.425109 a 3.1594454,1.8363634 0 0 1 -3.16117,1.835361 z"
     fill="hsla(0,0%,20%,1)" /><path
     transform="translate(43.850714,-144.38992)"
     clip-path="url(#clipPath878)"
     fill="hsla(0,0%,20%,1)"
     d="m 63.001677,213.10513 c -0.33504,-1.08209 -2.08606,-1.82396 -3.97802,-1.82456 l -4.89926,-0.002 a 3.1594454,1.8363634 0 0 1 -3.157727,-1.83738 l 0.0031,-3.42511 a 3.1594454,1.8363634 0 0 1 3.161172,-1.83536 l 5.088455,0.002 a 3.8566932,2.2416245 0 0 0 3.8588,-2.2404 l 0.0264,-28.14603 c 9e-5,-0.0969 -0.0289,-0.18918 -0.0487,-0.28224 a 3.8434627,2.2339346 0 0 0 -3.80586,-1.96063 l -5.088453,-0.002 a 3.1594454,1.8363634 0 0 1 -3.157671,-1.83735 l 0.0031,-3.42511 a 3.1594454,1.8363634 0 0 1 3.161164,-1.83536 l 4.89926,0.001 c 1.89195,6e-4 3.64439,-0.74016 3.98146,-1.82203 a 3.8593394,2.2431625 0 0 0 -3.78916,-2.66114 l -97.942799,-0.0311 c -1.891963,-6e-4 -3.644378,0.74016 -3.981448,1.82203 a 3.8606624,2.2439315 0 0 0 3.789366,2.66116 l 5.088453,0.002 a 3.1594454,1.8363634 0 0 1 3.157721,1.83737 l -0.0032,3.4251 a 3.1594454,1.8363634 0 0 1 -3.161172,1.83537 l -5.088453,-0.002 a 3.8434627,2.2339346 0 0 0 -3.809555,1.95815 c -0.01994,0.0938 -0.04913,0.18608 -0.04922,0.28221 l -0.02642,28.14526 a 3.8566932,2.2416245 0 0 0 3.854589,2.24285 l 5.088454,0.002 a 3.1594454,1.8363634 0 0 1 3.157721,1.83737 l -0.0032,3.42511 a 3.1594454,1.8363634 0 0 1 -3.16117,1.83536 l -4.899256,-0.002 c -1.891939,-5.8e-4 -3.644354,0.74018 -3.981424,1.82205 a 3.8606624,2.2439315 0 0 0 3.789366,2.66116 l 98.130667,0.0311 a 3.8593394,2.2431625 0 0 0 3.79303,-2.65799 z m -82.762801,-41.57667 a 3.1594454,1.8363634 0 0 1 -3.157722,-1.83736 l 0.0032,-3.42511 a 3.1594454,1.8363634 0 0 1 3.161168,-1.83536 l 4.448098,0.001 a 3.1594454,1.8363634 0 0 1 3.15772,1.83736 l -0.0032,3.42511 a 3.1594454,1.8363634 0 0 1 -3.161169,1.83536 z m 18.4816941,0.006 a 3.1594454,1.8363634 0 0 1 -3.157721,-1.83732 l 0.0032,-3.42511 a 3.1594454,1.8363634 0 0 1 3.161169,-1.83536 l 4.446773,0.001 a 3.1594454,1.8363634 0 0 1 3.157722,1.83736 l -0.0032,3.42511 a 3.1594454,1.8363634 0 0 1 -3.16117,1.83536 z m 18.4790489,0.006 a 3.1594454,1.8363634 0 0 1 -3.157721,-1.8374 l 0.0032,-3.42511 a 3.1594454,1.8363634 0 0 1 3.161208,-1.83533 l 4.446774,0.001 a 3.1594454,1.8363634 0 0 1 3.157721,1.83737 l -0.0032,3.42511 a 3.1594454,1.8363634 0 0 1 -3.161169,1.83536 z m 18.480372,0.006 A 3.1594454,1.8363634 0 0 1 32.52227,169.7085 l 0.0032,-3.42511 a 3.1594454,1.8363634 0 0 1 3.161166,-1.83536 l 4.448094,0.001 a 3.1594454,1.8363634 0 0 1 3.157726,1.83736 l -0.0031,3.42511 a 3.1594454,1.8363634 0 0 1 -3.161193,1.83536 z m -70.731568,28.12285 0.02221,-23.66202 24.996395,0.008 -0.02221,23.66125 -24.996395,-0.008 z m 32.7097791,0.0104 0.02221,-23.66202 24.9977199,0.008 -0.02221,23.66125 -24.9977199,-0.008 z m 32.7111049,0.0104 0.02221,-23.66202 24.996395,0.008 -0.02219,23.66125 -24.996391,-0.008 z m -50.16772,11.56522 a 3.1594454,1.8363634 0 0 1 -3.157722,-1.83736 l 0.0032,-3.42512 a 3.1594454,1.8363634 0 0 1 3.161168,-1.83536 l 4.448098,0.001 a 3.1594454,1.8363634 0 0 1 3.157719,1.83737 l -0.0032,3.42511 a 3.1594454,1.8363634 0 0 1 -3.161168,1.83536 z m 18.4816931,0.006 a 3.1594454,1.8363634 0 0 1 -3.157721,-1.83737 l 0.0032,-3.42511 a 3.1594454,1.8363634 0 0 1 3.161168,-1.83536 l 4.446774,0.001 a 3.1594454,1.8363634 0 0 1 3.15772,1.83737 l -0.0032,3.42511 a 3.1594454,1.8363634 0 0 1 -3.161168,1.83536 z m 18.4790489,0.006 a 3.1594454,1.8363634 0 0 1 -3.15772,-1.83737 l 0.0032,-3.42511 a 3.1594454,1.8363634 0 0 1 3.161168,-1.83536 l 4.446773,0.001 a 3.1594454,1.8363634 0 0 1 3.157721,1.83737 l -0.0032,3.42511 a 3.1594454,1.8363634 0 0 1 -3.161168,1.83557 z m 18.480373,0.006 a 3.1594454,1.8363634 0 0 1 -3.157723,-1.83737 l 0.0032,-3.4251 a 3.1594454,1.8363634 0 0 1 3.161168,-1.83537 l 4.448094,0.001 a 3.1594454,1.8363634 0 0 1 3.157719,1.83737 l -0.0031,3.42511 a 3.1594454,1.8363634 0 0 1 -3.161172,1.83536 z"
     style="mix-blend-mode:normal;fill:#4a4a4a;fill-opacity:1;stroke-width:1.00867"
     id="path894-3" /><rect
     y="4.9160681"
     x="31.955286"
     height="79.894676"
     width="41.420101"
     id="rect1020-2"
     style="fill:#250a0a;fill-opacity:0.47987;stroke:#260b0b;stroke-width:7.03125;stroke-linecap:round;stroke-linejoin:round;stroke-miterlimit:4;stroke-dasharray:none;stroke-opacity:0.707104" /><rect
     style="fill:none;fill-opacity:0.532688;stroke:#c33737;stroke-width:7.03125;stroke-linecap:round;stroke-linejoin:round;stroke-miterlimit:4;stroke-dasharray:none;stroke-opacity:1"
     id="rect1020"
     width="41.420101"
     height="79.894676"
     x="33.309639"
     y="3.515625" /><rect
     transform="translate(16.194754,-128.53794)"
     clip-path="url(#clipPath899)"
     y="132.05357"
     x="17.114887"
     height="79.894676"
     width="41.420101"
     id="rect1020-6"
     style="fill:none;fill-opacity:0.421313;stroke:#a12d2d;stroke-width:7.03125;stroke-linecap:round;stroke-linejoin:round;stroke-miterlimit:4;stroke-dasharray:none;stroke-opacity:1" /></svg>
